<svg width="100" height="102" viewBox="0 0 100 102" fill="none" xmlns="http://www.w3.org/2000/svg">
<mask id="mask0_523_148" style="mask-type:luminance" maskUnits="userSpaceOnUse" x="0" y="0" width="100" height="100">
<path d="M100 49.0485C100 21.9597 77.6142 0 50 0C22.3858 0 0 21.9597 0 49.0485V50.9515C0 78.0403 22.3858 100 50 100C77.6142 100 100 78.0403 100 50.9515V49.0485Z" fill="white"/>
</mask>
<g mask="url(#mask0_523_148)">
<path d="M100 49.0485C100 21.9597 77.6142 0 50 0C22.3858 0 0 21.9597 0 49.0485V50.9515C0 78.0403 22.3858 100 50 100C77.6142 100 100 78.0403 100 50.9515V49.0485Z" fill="#2AB0AF"/>
<path d="M100 49.0485C100 21.9597 77.6142 0 50 0C22.3858 0 0 21.9597 0 49.0485V50.9515C0 78.0403 22.3858 100 50 100C77.6142 100 100 78.0403 100 50.9515V49.0485Z" fill="url(#paint0_radial_523_148)"/>
<g opacity="0.65">
<path d="M99.1463 59.1838C98.4651 62.7741 97.3618 66.3645 95.8267 69.8973C81.867 102.047 39.6043 110.293 14.8416 85.5162C-0.288584 70.5213 -3.07091 50.2654 3.03103 33.2256C8.0968 45.0047 16.2615 62.6685 45.1594 71.5772C65.7007 77.9035 89.1491 72.422 99.1463 59.1838Z" fill="url(#paint1_linear_523_148)"/>
<path d="M100 50.1789C99.9906 53.1549 99.7123 56.1692 99.1367 59.1836C98.4555 62.7739 97.3522 66.3643 95.8171 69.8971C81.8574 102.047 39.5947 110.293 14.832 85.5161C11.8865 82.5978 9.41118 79.4778 7.3772 76.2234C77.281 108.037 99.3765 48.0093 99.3765 48.0093L100 50.1789Z" fill="url(#paint2_linear_523_148)"/>
</g>
</g>
<defs>
<radialGradient id="paint0_radial_523_148" cx="0" cy="0" r="1" gradientUnits="userSpaceOnUse" gradientTransform="translate(50.8563 30.8262) scale(49.9867 50.0182)">
<stop stop-color="#FFD83D"/>
<stop offset="1" stop-color="#FC7B24"/>
</radialGradient>
<linearGradient id="paint1_linear_523_148" x1="42.4656" y1="100.777" x2="50.076" y2="51.6237" gradientUnits="userSpaceOnUse">
<stop stop-color="#E04127"/>
<stop offset="1" stop-color="#E04127" stop-opacity="0.1"/>
</linearGradient>
<linearGradient id="paint2_linear_523_148" x1="63.583" y1="103.477" x2="51.2225" y2="53.2109" gradientUnits="userSpaceOnUse">
<stop stop-color="#C22C27"/>
<stop offset="1" stop-color="#D33127" stop-opacity="0.2"/>
</linearGradient>
</defs>
</svg>
