<svg width="275" height="100" viewBox="0 0 275 100" fill="none" xmlns="http://www.w3.org/2000/svg">
<path fill-rule="evenodd" clip-rule="evenodd" d="M5.36031 0.944566C3.52648 4.13542 0.647186 9.66995 0.645469 10.0067C0.641177 10.9652 1.59693 9.61341 3.86895 5.4479C6.91948 -0.144548 6.83408 0.043899 6.31478 0.043899C6.07445 0.043899 5.64485 0.44906 5.36031 0.944566ZM18.9379 1.49882C16.9483 3.51299 15.9603 4.81494 13.6815 8.42453C9.63569 14.8331 6.95725 17.5019 2.14584 19.9184C1.20167 20.3926 0.569077 20.8712 0.739457 20.982C1.18536 21.2711 5.43585 19.1275 7.20016 17.7241C9.69706 15.7377 11.179 13.9532 13.9432 9.60482C16.3826 5.76687 17.88 3.78153 20.3696 1.08313C21.8498 -0.520888 20.564 -0.147596 18.9379 1.49882ZM49.1737 1.1926C49.1059 3.7649 51.2989 7.25145 56.0429 12.1139C60.2458 16.4219 61.7367 18.6531 61.7535 20.6603C61.7702 22.7291 60.9234 23.8581 58.5055 24.989C56.4815 25.9357 55.0108 26.2425 45.2773 27.7473C32.1773 29.7723 27.1067 32.1154 21.8657 38.5647C19.9452 40.9281 17.5671 43.1251 16.0097 43.9756C13.7544 45.2072 9.64899 46.3068 5.52769 46.7835C0.833445 47.3264 0.0334752 47.5038 1.64414 47.6448C3.5518 47.8116 9.6065 46.9276 12.5231 46.0558C15.9603 45.0285 18.7555 43.3424 20.7803 41.0752C21.6734 40.0756 23.2395 38.3222 24.2609 37.1791C27.7689 33.2533 33.0932 30.5903 40.2723 29.1712C41.8864 28.8522 45.8455 28.2032 49.0702 27.729C58.1338 26.3966 61.3264 25.1343 62.4835 22.4256C63.5663 19.8902 62.0715 17.1197 56.5588 11.4433C52.9044 7.68044 51.4719 5.6563 50.2294 2.50092C49.2814 0.093228 49.205 -0.00154993 49.1737 1.1926ZM135.545 0.981978C132.65 2.45353 128.055 3.87242 124.196 4.48682C121.187 4.9657 118.414 5.09955 107.292 5.30268C93.9604 5.54572 88.8571 5.89297 84.117 6.87899C80.9626 7.53495 79.1361 8.19507 77.5983 9.23402C75.2379 10.8294 75.1272 11.2396 75.2478 17.9187C75.3714 24.7812 74.9293 26.8782 72.732 29.8512C71.2269 31.8879 68.076 33.8668 65.564 34.3526C64.6353 34.5322 60.705 34.7539 56.8296 34.8454C52.9542 34.9366 48.6758 35.1843 47.3222 35.3955C40.1689 36.5123 35.8665 39.5374 35.845 43.4657C35.8283 46.4679 37.4252 47.9832 41.3886 48.7273C45.8326 49.5614 51.4053 49.0493 62.0148 46.8323C66.6782 45.8576 67.7442 45.7288 70.169 45.8465C75.2366 46.0926 80.0232 47.7244 90.0314 52.6187C98.6267 56.8219 102.532 59.7121 103.895 62.8774C104.575 64.4565 104.572 64.638 103.848 66.175C103.136 67.6842 102.61 68.1021 96.5753 71.9587C92.9978 74.245 89.2855 76.8866 88.3263 77.8288C85.6813 80.426 83.7591 83.6601 81.7669 88.8635C81.1819 90.391 80.0901 91.7733 79.4687 91.7733C78.4593 91.7733 67.7322 84.3047 58.572 77.2241C55.4172 74.7854 50.883 71.3559 48.4964 69.6031C43.0344 65.5916 39.1891 62.526 36.5038 60.0421C31.4962 55.4108 28.9942 54.0578 24.1077 53.3401C20.846 52.8606 0.194842 52.4835 0.858337 52.9152C1.10811 53.0779 5.41052 53.2547 11.1584 53.3384C27.1681 53.5723 28.523 53.9717 35.9566 60.6477C37.9617 62.4484 41.7671 65.5431 44.4125 67.5246C47.0583 69.5061 51.6663 72.989 54.6533 75.2642C57.6399 77.5397 61.4075 80.408 63.0255 81.6382C66.5134 84.2906 76.7666 91.3801 78.3872 92.2602C80.7969 93.5688 81.2004 93.3227 82.3647 89.8334C83.4591 86.5547 85.2127 83.0743 86.9289 80.7741C88.7911 78.2791 92.6725 74.9924 95.5393 73.4829C99.1533 71.5801 103.11 68.8091 104.101 67.4872C105.553 65.5506 105.461 63.0928 103.854 60.873C100.685 56.4974 82.4106 47.2072 73.8491 45.6198C70.2664 44.9556 66.7528 45.1956 60.2981 46.5463C47.569 49.21 40.6216 49.143 37.6595 46.3285C36.4102 45.1415 36.3433 42.554 37.5187 40.8823C40.2478 37.002 45.309 35.5903 57.212 35.3894C61.0616 35.3245 64.9242 35.1222 65.7954 34.9396C70.6304 33.9273 74.2478 30.6416 75.6143 26.0208C76.1482 24.2153 76.2353 22.6675 76.0306 18.6115C75.7452 12.9597 76.0345 11.5273 77.7537 10.0718C79.1236 8.91172 80.8167 8.23664 84.117 7.5344C89.2945 6.43281 94.0076 6.09333 107.292 5.8647C121.731 5.61611 124.984 5.31654 130.226 3.75437C133.501 2.77832 137.978 0.790482 137.978 0.312159C137.978 -0.127643 137.431 0.0228374 135.545 0.981978ZM149.994 0.167221C149.994 0.260613 151.169 1.54122 152.605 3.01305C158.225 8.77288 161.16 13.4076 161.143 16.4928C161.129 19.084 160.172 20.131 155.371 22.8111C148.804 26.4764 146.628 29.116 147.093 32.852C147.579 36.7684 151.177 39.234 159.494 41.3507C163.765 42.4379 166.071 43.9465 167.213 46.3994C167.752 47.5553 167.704 52.6647 167.13 55.4094C163.529 72.6185 161.489 75.0708 147.096 79.4849C144.323 80.3351 140.473 81.5174 138.54 82.1118C134.103 83.4761 130.68 85.4592 129.128 87.5637C127.73 89.4587 127.29 92.5981 128.104 94.8641C128.727 96.5981 130.973 99.81 131.562 99.81C132.164 99.81 132.091 99.6385 130.692 97.7446C129.011 95.4708 128.383 93.4696 128.649 91.2385C129.114 87.342 132.489 84.6392 139.606 82.4638C152.967 78.3792 155.211 77.5808 157.912 75.9488C162.779 73.009 164.387 70.2618 166.78 60.7973C168.321 54.7027 168.904 47.6473 168.012 45.8812C166.742 43.366 165.396 42.5651 159.209 40.6443C156.047 39.6627 152.723 38.4292 151.82 37.9029C147.276 35.2516 146.629 30.6657 150.301 27.1279C151.128 26.3306 153.495 24.7429 155.56 23.5998C157.625 22.4566 159.817 21.0366 160.431 20.4441C163.204 17.7674 162.332 13.4137 157.878 7.70732C154.547 3.44066 149.994 -0.914133 149.994 0.167221ZM174.028 1.7923C174.028 2.90054 174.259 3.73746 174.658 4.07861C175.005 4.3743 175.294 4.82353 175.302 5.07655C175.316 5.56429 178.563 7.7015 180.16 8.27461C181.769 8.85214 183.642 8.70831 184.79 7.91905C185.626 7.34401 185.824 6.92222 185.799 5.77131C185.763 4.13791 184.13 1.6493 182.406 0.603698C180.794 -0.37401 180.616 0.129809 182.141 1.35499C183.823 2.70682 185.321 5.39053 184.97 6.42339C184.291 8.4176 181.617 8.50046 178.466 6.62486C176.065 5.19627 174.764 3.39327 174.766 1.49882C174.767 0.698476 174.601 0.043899 174.398 0.043899C174.194 0.043899 174.028 0.830666 174.028 1.7923ZM199.349 0.127592C199.349 0.199091 201.351 3.79483 203.799 8.11803C212.841 24.0909 215.26 29.8668 215.25 35.4667C215.244 38.5783 215.12 38.984 212.618 44.0793C211.69 45.969 210.822 48.3385 210.691 49.3447C210.211 53.0061 213.264 57.2251 217.539 58.8081C220.148 59.7747 222.172 59.8448 228.43 59.1869C233.377 58.6668 236.838 58.8156 242.458 59.7905C254.721 61.9183 258.069 62.4005 263.304 62.7937C269.561 63.264 275.95 63.366 274.882 62.9789C274.528 62.8506 271.827 62.6582 268.88 62.5513C262.12 62.3057 256.39 61.6381 247.416 60.0499C237.156 58.2342 234.367 58.0194 228.648 58.6047C220.603 59.428 218.63 59.1465 215.294 56.6997C212.768 54.846 211.646 52.7969 211.661 50.0655C211.671 48.1755 211.977 47.256 213.728 43.8301C215.663 40.0454 215.794 39.6023 215.975 36.2091C216.142 33.0759 216.018 32.1428 215.025 29.0467C213.73 25.0109 212.071 21.2475 209.629 16.8102C203.409 5.50831 200.307 0.204079 199.862 0.108193C199.58 0.0475017 199.349 0.0560927 199.349 0.127592ZM208.79 0.422179C208.79 0.69127 210.803 4.17699 213.263 8.16791C218.674 16.9468 221.271 22.1155 228.537 38.5647C229.514 40.7748 230.959 43.456 231.749 44.523C235.983 50.2407 249.284 56.0138 262.007 57.6566C265.68 58.1311 274.163 58.5387 274.593 58.2616C274.813 58.1194 273.557 57.9429 271.601 57.8412C257.936 57.1309 250.184 55.2403 240.448 50.2446C236.747 48.3457 233.686 45.9169 232.131 43.6459C231.537 42.7793 229.814 39.2969 228.302 35.9073C221.177 19.9373 219.657 16.9379 214.058 7.80349C209.665 0.635291 208.79 -0.59017 208.79 0.422179ZM217.546 1.06151C217.869 1.64515 219.59 4.3671 221.372 7.11067C223.153 9.85424 226.173 15.0629 228.082 18.6852C229.992 22.3075 232.588 26.797 233.851 28.6618C237.452 33.9771 243.889 42.2793 245.995 44.3248C250.066 48.2781 255.547 51.1294 261.578 52.4316C266.17 53.4232 275.326 54.2172 274.707 53.5704C274.582 53.4401 273.089 53.2503 271.388 53.148C265.156 52.7742 259.507 51.5653 255.245 49.6942C250.091 47.4314 246.923 44.6388 241.392 37.4822C234.601 28.6948 233.318 26.7308 228.91 18.3734C224.835 10.6474 218.348 0.299688 217.459 0.10847C217.102 0.0314283 217.127 0.304122 217.546 1.06151ZM227.245 0.298857C227.245 0.439084 228.326 2.02897 229.648 3.83224C230.969 5.63524 233.498 9.2307 235.267 11.8218C239.829 18.5031 241.838 20.987 245.667 24.6778C249.93 28.7862 251.242 30.4762 253.584 34.8767C254.622 36.8288 255.955 39.112 256.544 39.9504C258.753 43.0913 262.127 45.3882 266.489 46.7206C269.375 47.6019 274.08 48.3387 274.616 47.9929C274.851 47.8413 274.511 47.6695 273.764 47.5625C267.442 46.6563 264.513 45.7033 261.437 43.5519C258.567 41.5449 257.381 40.082 254.924 35.5163C252.139 30.3429 250.686 28.4127 246.458 24.2735C242.768 20.6625 240.731 18.2279 237.774 13.9003C232.1 5.59533 228.026 0.043899 227.606 0.043899C227.407 0.043899 227.245 0.15863 227.245 0.298857ZM252.08 0.172487C251.866 0.310774 252.341 5.53658 253.012 10.4362C253.631 14.9562 255.365 19.426 257.322 21.5418C259.957 24.3927 266.123 26.6019 272.911 27.1271C275.556 27.3316 275.301 26.7815 272.627 26.5149C269.941 26.2469 265.472 25.2906 263.484 24.5578C261.315 23.758 258.5 21.8101 257.277 20.2615C255.584 18.1193 254.311 14.0785 253.636 8.71025C253.284 5.90128 252.995 2.87199 252.995 1.97825C252.995 0.550212 252.625 -0.179466 252.08 0.172487ZM260.906 0.944566C262.855 8.75625 264.497 12.0693 267.925 15.1072C270.289 17.2028 274.882 19.3459 274.882 18.3529C274.882 18.2108 274.489 18.014 274.008 17.9156C272.585 17.6235 268.719 14.9903 267.225 13.2934C265.247 11.0473 263.854 8.21918 262.637 3.97441C262.054 1.94472 261.578 0.230129 261.578 0.163896C261.578 0.0979391 261.376 0.043899 261.13 0.043899C260.864 0.043899 260.772 0.410263 260.906 0.944566ZM268.016 0.415251C268.016 1.24137 269.762 5.11645 270.998 7.03446C272.223 8.93445 274.825 11.3862 274.865 10.6776C274.875 10.5055 274.2 9.63364 273.367 8.7399C271.906 7.1733 269.7 3.23448 269.079 1.08313C268.795 0.102373 268.016 -0.387589 268.016 0.415251ZM98.0903 11.2831C91.9557 12.1419 87.7774 14.3301 86.0757 17.575C84.8736 19.8674 82.5188 31.5032 82.4733 35.3777C82.4462 37.6851 82.6278 38.762 83.2213 39.8074C85.2573 43.3967 90.1236 46.7627 100.495 51.7555C108.56 55.638 110.913 57.0101 113.155 59.1395C116.079 61.9169 117.721 65.1723 118.674 70.0814C119.267 73.1401 120.356 74.7385 122.184 75.2313C125.869 76.2245 134.759 75.9826 140.945 74.7208C144.395 74.0172 148.567 72.5417 150.54 71.3285C157.231 67.2115 159.692 57.9534 155.546 52.4898C154.639 51.2943 153.28 50.178 151.16 48.8872C142.816 43.806 140.903 42.2982 139.304 39.5383C136.528 34.7481 136.44 29.2285 139.012 21.3828C140.891 15.6534 138.905 13.4608 130.86 12.3839C121.065 11.0722 103.75 10.4905 98.0903 11.2831ZM98.6302 11.8038C91.3605 12.876 88.0014 14.9176 86.2907 19.3043C85.2384 22.0021 83.3277 32.3678 83.302 35.5163C83.281 38.0955 83.4067 38.6046 84.408 39.9955C87.0194 43.6237 90.9875 46.2777 101.591 51.4891C110.298 55.768 113.797 58.0654 115.891 60.876C117.388 62.8855 118.863 66.4094 119.275 68.9621C120.165 74.4664 121.514 75.2673 129.823 75.2235C141.172 75.1636 150.021 72.2427 153.729 67.3328C157.218 62.7117 157.682 56.9494 154.887 52.9754C154.045 51.779 152.444 50.5865 147.446 47.4328C141.812 43.8781 140.902 43.1745 139.559 41.336C136.93 37.7386 136.493 36.2449 136.515 30.9437C136.533 26.9522 136.711 25.6821 137.684 22.6298C138.928 18.727 139.106 16.9748 138.354 16.0298C137.314 14.7217 135.606 13.8776 132.913 13.3405C125.683 11.8983 104.444 10.9464 98.6302 11.8038ZM30.3521 13.2549C29.5397 13.466 28.1092 15.4265 28.12 16.3141C28.1251 16.7395 28.486 17.3866 28.9212 17.7521C29.6113 18.3316 29.9551 18.3962 31.5941 18.2543C32.9614 18.1359 33.7974 17.8585 34.6553 17.2386C36.0128 16.2576 36.0913 15.8566 35.1712 14.6042C34.2712 13.3799 32.1546 12.7871 30.3521 13.2549ZM30.2783 14.3609C27.9183 16.2986 29.283 18.3374 32.3846 17.5077C35.2776 16.7339 35.6235 15.1471 33.1151 14.1594C31.3859 13.4785 31.3499 13.4813 30.2783 14.3609ZM103.548 17.3586C95.4462 18.7988 91.9373 23.4022 91.9257 32.6065C91.9201 37.3168 92.4913 38.8166 95.3526 41.6026C98.6576 44.8209 102.695 46.8245 112.8 50.262C123.909 54.0404 124.885 54.5885 128.563 59.1057C132.206 63.5802 134.919 65.1338 138.421 64.7517C141.774 64.3861 143.557 62.7724 143.557 60.1053C143.557 58.008 141.965 56.1313 137.75 53.2597C131.438 48.959 130.02 45.7587 128.33 32.0034C127.41 24.5146 126.418 22.2812 123.1 20.2235C118.886 17.6099 109.703 16.2645 103.548 17.3586ZM104.388 17.8045C96.5105 19.0031 92.6497 23.9542 92.7381 32.745C92.769 35.8519 92.9334 36.7645 93.7055 38.1266C94.9955 40.4021 96.7543 42.0759 99.913 44.0347C103.303 46.1372 106.818 47.5922 115.209 50.3673C123.64 53.1552 126.041 54.5716 129.397 58.7338C132.289 62.3201 134.046 63.6753 136.318 64.0705C140.979 64.8808 144.281 61.1778 141.888 57.8251C141.453 57.2154 139.335 55.4354 137.181 53.8694C132.858 50.7276 132.046 49.8638 130.737 47.0138C129.398 44.0992 128.653 40.7806 127.685 33.4123C126.54 24.6997 125.644 22.5728 122.244 20.5021C118.539 18.2451 109.986 16.9532 104.388 17.8045ZM107.507 27.688C103.981 28.825 102.6 33.5371 104.933 36.4644C106.526 38.463 108.784 39.5347 111.399 39.5347C114.073 39.5347 115.448 38.716 116.317 36.6071C117.11 34.683 117.103 33.9092 116.274 31.815C115.421 29.6603 114.16 28.4179 112.137 27.7379C110.176 27.0783 109.422 27.07 107.507 27.688ZM108.544 28.0192C106.405 28.5925 104.511 30.8824 104.505 32.9024C104.498 35.5063 107.64 38.6287 110.544 38.9042C112.645 39.1032 114.464 38.3386 115.309 36.9019C116.286 35.2428 116.267 33.7283 115.244 31.5894C113.973 28.9312 111.018 27.3565 108.544 28.0192ZM185.83 52.4014C182.349 53.4606 179.552 55.8764 177.622 59.4879C176.607 61.3887 176.435 62.1594 176.413 64.8919C176.382 68.8321 177.241 70.2801 180.293 71.4352C182.026 72.0908 182.516 72.1427 186.153 72.0545C189.511 71.9733 190.551 71.827 192.914 71.104C197.99 69.5507 200.181 67.5099 200.198 64.3188C200.21 61.9953 199.341 60.102 196.859 57.0453C194.673 54.353 192.655 52.8327 190.494 52.2493C188.638 51.7488 187.895 51.7729 185.83 52.4014ZM186.259 52.9477C178.869 55.1619 174.283 65.8042 178.999 69.7965C181.026 71.5125 183.893 72.016 188.247 71.4208C195.376 70.4455 199.349 67.8829 199.349 64.2584C199.349 60.4265 194.033 53.8744 190.054 52.8008C188.299 52.3274 188.334 52.3261 186.259 52.9477ZM65.1791 54.3552C59.4523 55.3246 54.3572 57.4055 53.1529 59.2667C52.3946 60.439 52.4173 62.0433 53.2134 63.5001C54.2585 65.4126 57.6485 68.4882 61.2041 70.7498C67.1528 74.5335 71.9711 75.4732 77.0589 73.842C80.1545 72.8493 87.2087 68.2845 88.7666 66.2653C90.0846 64.5579 90.3099 62.1652 89.2996 60.6042C88.4318 59.2626 85.4028 57.221 82.4312 55.9745C77.3649 53.8489 71.4488 53.2935 65.1791 54.3552ZM65.8773 54.7775C62.1277 55.4302 56.4558 57.4103 55.0237 58.5664C53.089 60.1289 52.9963 61.6318 54.6911 63.9702C56.3627 66.277 58.5622 68.1886 62.2277 70.5212C68.5369 74.5354 73.6646 75.0694 78.9339 72.2616C86.7744 68.0833 90.1206 64.6818 89.0095 62.0181C87.9765 59.5403 84.4427 57.1944 79.2395 55.5322C76.404 54.6262 75.6757 54.5143 72.1582 54.4444C69.6738 54.3951 67.373 54.517 65.8773 54.7775ZM0.847607 57.6979C0.729157 57.8215 1.74543 57.9969 3.10546 58.0878C16.1208 58.9552 21.4103 60.4401 31.1147 65.9502C36.2248 68.8515 44.2048 74.1247 47.6218 76.858C51.5418 79.9937 58.3952 86.6783 60.899 89.8088C63.1311 92.5994 65.2271 96.3138 65.6868 98.2925C66.0211 99.7327 66.7357 100.232 66.7357 99.026C66.7357 96.8442 63.1551 90.8056 59.5922 86.9779C52.3834 79.2341 45.4605 73.6982 35.369 67.6086C24.9282 61.3083 19.9941 59.4122 11.0833 58.2768C6.21779 57.6569 1.16047 57.3709 0.847607 57.6979ZM1.07292 63.4497C1.07292 63.5711 2.61449 63.8155 4.49897 63.9929C9.18678 64.4341 15.1968 65.7709 19.3126 67.2882C28.1487 70.545 38.9852 76.9317 44.1927 81.9511C49.2934 86.8676 53.8847 93.3261 55.3614 97.6623C56.0957 99.8189 57.1463 100.736 56.6313 98.7708C54.9228 92.2541 47.8106 83.1613 39.8311 77.2914C32.8923 72.1876 22.5309 67.2042 14.5866 65.1499C9.65629 63.8754 1.07292 62.7954 1.07292 63.4497ZM217.254 71.0929C216.363 71.3074 213.949 72.11 211.89 72.8762C206.843 74.7543 201.449 76.444 195.353 78.0552C180.524 81.9749 178.704 85.3645 184.525 98.2166C184.922 99.0931 185.449 99.81 185.696 99.81C185.958 99.81 186.029 99.5504 185.866 99.1865C184.177 95.4056 182.539 90.7565 182.328 89.1395C181.976 86.4483 182.943 84.4522 185.482 82.6281C187.718 81.0227 189.708 80.2672 196.559 78.4254C202.274 76.8893 208.311 74.9677 212.856 73.239C220.684 70.2615 224.17 70.5464 234.54 75.0101C239.3 77.0584 244.081 79.8147 246.718 82.0303C250.774 85.4387 252.136 88.8771 252.136 95.7058C252.136 98.7564 252.266 99.7909 252.631 99.6454C253.366 99.3519 252.781 89.632 251.897 87.4778C250.447 83.9433 247.667 81.2389 242.145 77.9904C238.711 75.9701 231.056 72.59 227.674 71.6003C224.761 70.7482 219.71 70.5021 217.254 71.0929ZM106.434 79.3599C105.053 79.6714 102.489 80.8101 101.596 81.5082C98.4924 83.9348 98.2692 86.8064 100.626 93.9903C101.101 95.4383 101.491 97.2779 101.494 98.078C101.496 98.8781 101.691 99.5329 101.927 99.5329C102.634 99.5329 102.415 96.7195 101.482 93.8094C99.9361 88.989 99.6979 87.789 99.9391 86.0346C100.33 83.1862 102.363 81.2835 106.219 80.1564C108.401 79.5184 109.989 79.4378 111.516 79.8873C113.416 80.4463 113.67 81.1698 113.327 85.0416C112.546 93.8496 112.588 95.0861 113.754 97.5359C114.348 98.7866 115.021 99.81 115.248 99.81C115.836 99.81 115.789 99.6316 114.556 97.1945C113.369 94.8467 113.36 94.538 114.189 84.6173C114.48 81.1297 114.313 80.372 113.075 79.5728C112.119 78.9553 108.709 78.8461 106.434 79.3599ZM215.705 80.0079C208.09 81.0745 199.165 83.4132 195.688 85.2525C194.737 85.7558 193.393 86.8363 192.7 87.6541C191.6 88.9522 191.418 89.4914 191.264 91.9083C191.083 94.7331 191.773 98.834 192.549 99.5506C192.985 99.9522 192.937 99.4617 192.066 94.5582C191.482 91.269 192.505 88.4533 194.949 86.6248C197.334 84.8407 204.085 82.7032 211.977 81.2339C220.205 79.7019 224.87 79.8244 230.791 81.7271C238.428 84.1822 243.41 89.4028 244.608 96.2074C245.115 99.0853 245.36 99.8627 245.686 99.6288C246.154 99.2932 245.435 95.1845 244.43 92.4515C243.229 89.1844 240.993 86.4744 237.665 84.2482C231.793 80.3199 224.091 78.8331 215.705 80.0079ZM158.034 86.5323C154.086 87.1331 150.075 88.9793 148.682 90.8363C147.864 91.9271 147.766 92.4007 147.976 94.2251C148.223 96.3784 149.752 99.81 150.463 99.81C151.012 99.81 150.971 99.6554 149.774 97.2361C148.395 94.4476 148.361 92.2783 149.675 90.904C152.737 87.7006 160.703 85.9811 164.837 87.6308C167.183 88.5672 169.92 91.172 173.327 95.7127C176.15 99.4731 177.032 100.367 177.031 99.4636C177.031 99.2732 175.791 97.4725 174.276 95.4622C169.721 89.4211 166.871 87.1528 163.056 86.5323C160.943 86.1886 160.293 86.1886 158.034 86.5323ZM212.867 87.8484C207.75 88.8399 204.022 90.5299 202.355 92.6136C201.428 93.7725 200.636 96.3382 200.636 98.1819C200.636 100.512 201.361 99.8757 201.617 97.3206C201.896 94.5388 202.762 92.993 204.936 91.3939C209.064 88.3583 220.081 86.9288 226.05 88.6548C230.769 90.0191 234.595 93.4887 236.056 97.7305C236.818 99.9442 237.845 100.68 237.315 98.6322C236.049 93.7512 232.053 89.7838 226.815 88.2064C223.668 87.2586 216.819 87.0829 212.867 87.8484ZM270.06 87.8924C267.053 88.4772 264.251 90.3691 262.499 92.998C261.741 94.1353 260.297 98.1262 260.294 99.0942C260.288 100.451 260.854 99.6368 261.626 97.1745C263.437 91.3989 267.68 88.1787 273.487 88.1723C274.255 88.1715 274.882 88.0459 274.882 87.8935C274.882 87.5662 271.741 87.5657 270.06 87.8924ZM0 87.9882C0 88.1168 13.0896 90.7595 14.5917 95.8863C16.0938 101.013 17.8379 100.098 17.7907 99.6022C17.78 99.4877 18.2397 95.1935 13.7334 92.4222C9.22712 89.651 0 87.4087 0 87.9882ZM273.554 99.4262C273.056 99.8136 273.087 99.8602 273.787 99.7726C274.233 99.7169 274.677 99.5157 274.775 99.3251C275.03 98.8307 274.234 98.8966 273.554 99.4262Z" fill="#FFED9F"/>
<path d="M1.80122 27.3063C0.853616 27.2084 0.0785376 27.0197 0.0785376 26.8867C0.0785376 26.7537 0.866061 26.645 1.82826 26.645C3.20546 26.645 3.85565 26.8246 4.88265 27.4875C6.09376 28.2696 6.17487 28.445 6.00836 29.9298C5.80579 31.7367 4.34361 33.333 1.90122 34.4138C-0.277672 35.3779 -0.285826 34.8203 1.8892 33.5838C6.44825 30.9926 6.40319 27.7815 1.80122 27.3063Z" fill="#FFED9F"/>
</svg>
