<svg width="275" height="100" viewBox="0 0 275 100" fill="none" xmlns="http://www.w3.org/2000/svg">
<path d="M275 70.7581C275 82.7304 264.144 94.8639 252.203 94.8639C240.262 94.8639 233.834 77.9093 233.834 65.9369C233.834 53.9645 241.438 45.4036 253.379 45.4036C265.32 45.4036 275 58.7857 275 70.7581Z" fill="#2FA5A4"/>
<path opacity="0.8" d="M196.731 43.3828C196.731 52.8251 185.255 68.4709 175.856 68.4709C166.456 68.4709 164.12 58.3948 164.12 48.9526C164.12 39.5103 171.739 27.5938 181.138 27.5938C190.538 27.5938 196.731 33.9405 196.731 43.3828Z" fill="#1F8B8A"/>
<path opacity="0.5" d="M130.108 11.625C130.108 18.577 138.572 30.0966 145.504 30.0966C152.436 30.0966 154.16 22.6779 154.16 15.7258C154.16 8.77378 148.54 0 141.608 0C134.676 0 130.108 4.67294 130.108 11.625Z" fill="#1F8B8A"/>
<path opacity="0.2" d="M139.87 82.3235C139.87 89.2755 147.227 93.8388 154.159 93.8388C161.092 93.8388 163.922 93.3764 163.922 86.4243C163.922 79.4723 158.302 70.6985 151.37 70.6985C144.438 70.6985 139.87 75.3714 139.87 82.3235Z" fill="#1F8B8A"/>
<path d="M215.577 82.365C217.919 87.8828 215.411 93.634 209.911 95.9848C204.41 98.3355 200.216 99.2938 197.874 93.7759C195.532 88.2581 198.544 84.5162 204.045 82.1655C209.545 79.8148 213.235 76.8472 215.577 82.365Z" fill="#279897"/>
<path d="M233.834 31.1929C233.834 36.5212 227.362 45.3502 222.061 45.3502C216.761 45.3502 215.443 39.6642 215.443 34.3359C215.443 29.0076 220.621 15.041 225.922 15.041C231.222 15.041 233.834 25.8646 233.834 31.1929Z" fill="#2AACAB"/>
<path d="M110.88 70.7581C110.88 82.7304 100.024 94.8639 88.0836 94.8639C76.1428 94.8639 69.7146 77.9093 69.7146 65.9369C69.7146 53.9645 77.3189 45.4036 89.2597 45.4036C101.201 45.4036 110.88 58.7857 110.88 70.7581Z" fill="#2FA5A4"/>
<path opacity="0.8" d="M32.6119 43.3828C32.6119 52.8251 21.1353 68.471 11.736 68.471C2.3367 68.471 0 58.3948 0 48.9526C0 39.5103 7.61964 27.5938 17.0189 27.5938C26.4182 27.5938 32.6119 33.9405 32.6119 43.3828Z" fill="#1F8B8A"/>
<path d="M51.4577 82.365C53.7998 87.8828 51.2917 93.634 45.7913 95.9848C40.2908 98.3355 36.097 99.2938 33.7548 93.7759C31.4127 88.2581 34.425 84.5162 39.9254 82.1655C45.4259 79.8148 49.1155 76.8472 51.4577 82.365Z" fill="#279897"/>
<path d="M69.7147 31.1929C69.7147 36.5212 63.2427 45.3502 57.9421 45.3502C52.6415 45.3502 51.3237 39.6642 51.3237 34.3359C51.3237 29.0076 56.5017 15.041 61.8023 15.041C67.1029 15.041 69.7147 25.8646 69.7147 31.1929Z" fill="#2AACAB"/>
<path opacity="0.2" d="M125.156 46.1687C125.156 50.0073 121.087 52.5269 117.254 52.5269C113.421 52.5269 111.856 52.2715 111.856 48.433C111.856 44.5944 114.964 39.75 118.797 39.75C122.63 39.75 125.156 42.3302 125.156 46.1687Z" fill="#1F8B8A"/>
</svg>
