<svg width="82" height="95" viewBox="0 0 82 95" fill="none" xmlns="http://www.w3.org/2000/svg">
<path fill-rule="evenodd" clip-rule="evenodd" d="M12.2349 1.07635C10.7467 4.32461 10.4083 11.4557 11.592 14.6375C11.8805 15.4125 11.5026 16.3115 9.92587 18.6013C8.79345 20.2462 7.43747 23.0326 6.87644 24.8694C5.99771 27.7461 5.89746 28.9455 6.10502 34.0942C6.58321 45.9697 10.7058 53.2702 19.3123 57.483C22.4408 59.0142 28.7002 60.8318 30.8906 60.8445C32.7582 60.8557 33.5042 61.479 32.5714 62.2484C31.5999 63.0505 30.508 65.1536 29.802 67.5838C29.3318 69.2031 28.9623 69.5938 27.3837 70.1409C26.3591 70.4961 24.1437 70.8068 22.4611 70.8312C17.7403 70.8995 14.945 69.1806 11.1651 63.8845C8.81463 60.5908 6.14079 58.8598 3.0057 58.6014C-0.268705 58.3314 -0.889512 59.1078 1.25012 60.7972C4.66385 63.4932 6.56768 65.7531 8.30773 69.174C10.4224 73.332 12.3314 75.3294 15.6364 76.8419C17.6772 77.7755 18.7174 77.9159 23.4659 77.8967L28.9416 77.8743L29.2273 80.2366C30.0529 87.0654 29.3309 91.1059 26.8194 93.7131L25.5797 95H43.8146H62.0495L60.8216 93.947C58.961 92.3522 58.593 89.7553 58.9469 80.7266C59.37 69.9336 58.5911 65.4583 55.7525 62.3705C54.6422 61.1627 54.5796 61.1973 59.3587 60.3966C70.9949 58.4479 77.805 52.966 80.9029 43.0542C81.8315 40.083 82 38.5386 82 32.9926C82 25.3917 81.4376 23.209 78.2681 18.5091C76.7785 16.3007 76.3742 15.3278 76.6443 14.6019C77.3931 12.5896 77.5998 8.08857 77.075 5.2264C76.2598 0.777315 75.7886 0 73.9083 0C71.548 0 66.9383 1.67584 62.7969 4.04007L59.1257 6.13569L55.2663 5.30924C49.9271 4.16596 38.2899 4.16736 32.9441 5.31204L29.0715 6.14084L26.1835 4.45798C21.9951 2.01746 17.922 0.417439 15.1785 0.136182C12.9555 -0.0921919 12.7386 -0.0229314 12.2349 1.07635ZM5.1491 60.4415C5.26489 60.7883 5.73743 61.144 6.19868 61.2333C6.73524 61.3363 6.96163 61.1678 6.82655 60.7654C6.71077 60.4186 6.23822 60.0629 5.77697 59.9736C5.24041 59.8706 5.01402 60.0391 5.1491 60.4415ZM7.65068 62.2166C7.2365 62.8825 7.76458 63.6453 8.6386 63.6453C9.0509 63.6453 9.28718 63.3163 9.19916 62.8652C9.01608 61.925 8.07616 61.5319 7.65068 62.2166ZM9.75313 65.6941C9.75313 66.7307 11.1063 67.6349 11.7299 67.0148C12.1159 66.631 12.0956 66.302 11.6523 65.7709C10.9044 64.8752 9.75313 64.8284 9.75313 65.6941ZM12.5771 68.9007C12.5771 69.7249 13.5227 70.665 14.3515 70.665C15.4811 70.665 14.8189 68.5764 13.6361 68.4094C12.98 68.3172 12.5771 68.5039 12.5771 68.9007ZM16.9919 71.3445C16.6272 72.2903 17.1699 73.0049 18.2528 73.0049C19.373 73.0049 19.5081 71.3637 18.4218 70.9491C17.3816 70.5522 17.2875 70.578 16.9919 71.3445ZM26.5601 71.425C25.7402 72.2402 26.2692 73.062 27.5207 72.9188C28.2912 72.8308 28.815 72.4869 28.815 72.069C28.815 71.3333 27.1347 70.8536 26.5601 71.425ZM21.8337 71.9131C21.2656 72.478 21.5056 73.3676 22.3095 73.6741C23.2353 74.0275 24.6007 72.8613 24.1361 72.1139C23.785 71.5486 22.3279 71.4218 21.8337 71.9131Z" fill="white"/>
</svg>
