<svg width="82" height="82" viewBox="0 0 82 82" fill="none" xmlns="http://www.w3.org/2000/svg">
<path d="M41.0038 0C29.8688 0 28.4714 0.0486883 24.098 0.247709C19.7332 0.447584 16.7538 1.1386 14.1469 2.1525C11.4502 3.19971 9.16274 4.60054 6.8838 6.88031C4.60315 9.15923 3.2023 11.4467 2.15167 14.1424C1.1352 16.7502 0.443317 19.7304 0.246856 24.0935C0.0512502 28.4668 0 29.8651 0 41C0 52.1349 0.049543 53.5281 0.247712 57.9014C0.448443 62.2662 1.13947 65.2455 2.15252 67.8524C3.2006 70.549 4.60144 72.8365 6.88124 75.1154C9.15932 77.396 11.4468 78.8003 14.1417 79.8475C16.7504 80.8614 19.7306 81.5524 24.0946 81.7523C28.468 81.9513 29.8645 82 40.9987 82C52.1346 82 53.5278 81.9513 57.9011 81.7523C62.266 81.5524 65.2488 80.8614 67.8574 79.8475C70.5532 78.8003 72.8373 77.396 75.1153 75.1154C77.396 72.8365 78.7968 70.549 79.8475 67.8533C80.8554 65.2455 81.5473 62.2653 81.7523 57.9023C81.9487 53.5289 82 52.1349 82 41C82 29.8651 81.9487 28.4677 81.7523 24.0943C81.5473 19.7295 80.8554 16.7502 79.8475 14.1433C78.7968 11.4467 77.396 9.15923 75.1153 6.88031C72.8347 4.59969 70.5541 3.19885 67.8549 2.1525C65.2411 1.1386 62.26 0.447584 57.8952 0.247709C53.5218 0.0486883 52.1295 0 40.991 0H41.0038ZM37.3258 7.38854C38.4174 7.38683 39.6355 7.38854 41.0038 7.38854C51.951 7.38854 53.2485 7.42783 57.5714 7.62429C61.569 7.80708 63.7386 8.47504 65.1838 9.03623C67.0972 9.77935 68.4613 10.6677 69.8955 12.1027C71.3305 13.5377 72.2188 14.9044 72.9637 16.8177C73.5249 18.2612 74.1937 20.4308 74.3756 24.4283C74.5721 28.7504 74.6148 30.0487 74.6148 40.9906C74.6148 51.9325 74.5721 53.2308 74.3756 57.5529C74.1928 61.5504 73.5249 63.72 72.9637 65.1635C72.2205 67.0769 71.3305 68.4393 69.8955 69.8734C68.4605 71.3084 67.0981 72.1967 65.1838 72.9399C63.7403 73.5036 61.569 74.1699 57.5714 74.3526C53.2493 74.5491 51.951 74.5918 41.0038 74.5918C30.0559 74.5918 28.7584 74.5491 24.4363 74.3526C20.4387 74.1681 18.2691 73.5002 16.823 72.939C14.9096 72.1959 13.543 71.3075 12.1079 69.8725C10.6729 68.4375 9.78458 67.0743 9.03974 65.1601C8.47855 63.7166 7.80973 61.547 7.62779 57.5495C7.43133 53.2274 7.39203 51.9291 7.39203 40.9804C7.39203 30.0316 7.43133 28.7401 7.62779 24.4181C7.81058 20.4206 8.47855 18.251 9.03974 16.8057C9.78287 14.8924 10.6729 13.5257 12.1079 12.0907C13.543 10.6557 14.9096 9.7674 16.823 9.02256C18.2683 8.45881 20.4387 7.79256 24.4363 7.60892C28.2185 7.43808 29.6843 7.38683 37.3258 7.37829V7.38854ZM62.8895 14.1962C60.1733 14.1962 57.9695 16.3974 57.9695 19.1145C57.9695 21.8308 60.1733 24.0345 62.8895 24.0345C65.6058 24.0345 67.8096 21.8308 67.8096 19.1145C67.8096 16.3983 65.6058 14.1945 62.8895 14.1945V14.1962ZM41.0038 19.9448C29.376 19.9448 19.9484 29.3722 19.9484 41C19.9484 52.6278 29.376 62.0509 41.0038 62.0509C52.6317 62.0509 62.0559 52.6278 62.0559 41C62.0559 29.3722 52.6317 19.9448 41.0038 19.9448ZM41.0038 27.3333C48.5513 27.3333 54.6707 33.4517 54.6707 41C54.6707 48.5474 48.5513 54.6667 41.0038 54.6667C33.4555 54.6667 27.337 48.5474 27.337 41C27.337 33.4517 33.4555 27.3333 41.0038 27.3333Z" fill="white"/>
</svg>
