<svg width="846" height="865" viewBox="0 0 846 865" fill="none" xmlns="http://www.w3.org/2000/svg">
<path d="M147.955 0L104.717 170.796L234.235 126.72L369.264 297.516L504.565 0H147.955Z" fill="#5DC5C7" fill-opacity="0.5"/>
<path d="M154.319 465.557L223.212 504.124L269.02 647.373L347.218 495.86L234.235 382.914L217.7 267.213L104.717 170.796L147.955 0H24L0 41.3217L8.2671 198.344L148.808 308.535L154.319 465.557Z" fill="#167D7F" fill-opacity="0.5"/>
<path d="M276.948 672.166L352.73 727.261L421.486 597.787L369.264 297.516L234.235 126.72L104.717 170.796L217.7 267.213L234.235 382.914L347.218 495.86L269.02 647.373L276.948 672.166Z" fill="#42A9AB" fill-opacity="0.5"/>
<path d="M330.684 840.207L443.668 863.31L352.73 727.261L276.948 672.166L330.684 840.207Z" fill="#167D7F" fill-opacity="0.5"/>
<path d="M812.932 71.6242L817 0H573.186L661.368 220.382L611.765 297.516H454.691L471.225 504.124L421.486 597.787L352.73 727.261L443.668 863.31L451.935 865L567.674 550.955L647.59 575.748L675.147 349.857L752.306 363.631L785.375 187.325L846 126.72L812.932 71.6242Z" fill="#5DC5C7" fill-opacity="0.5"/>
<path d="M661.368 220.382L573.186 0H504.565L369.264 297.516L421.486 597.787L471.225 504.124L454.691 297.516H611.765L661.368 220.382Z" fill="#1D9EA0" fill-opacity="0.5"/>
</svg>
