<svg width="793" height="408" viewBox="0 0 793 408" fill="none" xmlns="http://www.w3.org/2000/svg">
<path d="M79.7683 228.95L0 408H125.061L133.901 378.647L94.0138 352.23V305.266L79.7683 228.95Z" fill="#5ED3CD" fill-opacity="0.5"/>
<path d="M162.392 284.719L79.7683 228.95L94.0138 305.266V352.23L133.901 378.647L125.061 408H150.996L170.94 369.842L133.901 346.36L162.392 284.719Z" fill="#ADFBFF" fill-opacity="0.5"/>
<path d="M467.247 187.856L364.679 0L316.244 93.9281L341.886 325.813L378.925 223.079L430.209 261.237L467.247 187.856Z" fill="#ADFBFF" fill-opacity="0.5"/>
<path d="M703.723 272.978L663.836 311.137L737.913 408H793C757.006 344.904 736.472 308.681 703.723 272.978Z" fill="#7CE8E5" fill-opacity="0.5"/>
<path fill-rule="evenodd" clip-rule="evenodd" d="M162.392 284.719L227.922 155.568L267.81 187.856L259.262 272.978L293.452 290.59L276.357 408H150.996L170.94 369.842L133.901 346.36L162.392 284.719Z" fill="#5ED3CD" fill-opacity="0.5"/>
<path fill-rule="evenodd" clip-rule="evenodd" d="M484.342 169.209L515.682 135.022L663.836 311.137L737.913 408H481.295L535.626 267.108L484.342 169.209Z" fill="#ADFBFF" fill-opacity="0.5"/>
<path d="M484.342 169.209L467.247 187.856L430.209 261.237L378.925 223.079L341.886 325.813L316.244 93.9281L267.81 187.856L259.262 272.978L293.452 290.59L276.357 408H481.295L535.626 267.108L484.342 169.209Z" fill="#7CE8E5" fill-opacity="0.5"/>
</svg>
