<svg width="204" height="357" viewBox="0 0 204 357" fill="none" xmlns="http://www.w3.org/2000/svg">
<path fill-rule="evenodd" clip-rule="evenodd" d="M95.2358 6.61665C91.6702 10.174 68.7836 32.4122 44.376 56.0361L0 98.989L16.9583 115.962C67.5499 166.595 78.4152 177.708 78.113 178.512C77.6442 179.761 65.4245 192.424 41.0587 216.909C29.5022 228.523 15.543 242.554 10.0385 248.088L0.0319135 258.151L6.98956 265.056C10.8165 268.853 14.4539 271.839 15.0733 271.689C16.1225 271.438 80.3551 204.896 86.5886 197.604C88.1415 195.788 89.8251 194.552 90.3288 194.86C90.8743 195.191 91.2464 225.944 91.2464 270.652L91.2464 345.886L96.6292 351.443L102.011 357L124.306 335.358C136.568 323.455 159.481 301.145 175.225 285.781L203.849 257.846L164.335 218.158L124.821 178.468L139.752 163.559C147.965 155.358 165.78 137.476 179.342 123.82L204 98.99L167.322 63.4612C147.148 43.9211 124.152 21.6143 116.218 13.8925C108.285 6.16976 102.021 -0.0825016 102 0C101.979 0.0815194 98.8014 3.06024 95.2358 6.61665ZM91.2464 99.2807V161.389L87.3397 157.474C63.1435 133.229 30.4068 99.4693 30.4068 98.7611C30.4068 98.2671 43.3108 84.8282 59.0812 68.8965C74.8526 52.9659 88.1146 39.3109 88.5535 38.5526C88.9923 37.7944 89.7772 37.1737 90.2989 37.1737C90.8873 37.1737 91.2464 60.6955 91.2464 99.2807ZM162.73 87.0577L174.349 99.1285L161.947 111.612C155.126 118.477 141.365 132.399 131.367 142.55L113.188 161.004L113.226 98.8436L113.264 36.6826L132.187 55.8347C142.595 66.3684 156.34 80.4183 162.73 87.0577ZM166.943 250.529L174.32 258.115L155.473 277.338C145.107 287.911 131.375 301.954 124.955 308.545L113.283 320.527L113.236 258.16L113.19 195.793L136.378 219.368C149.132 232.334 162.885 246.357 166.943 250.529Z" fill="#98D7C2"/>
</svg>
