<svg width="131" height="130" viewBox="0 0 131 130" fill="none" xmlns="http://www.w3.org/2000/svg">
<g filter="url(#filter0_b_488_150)">
<path d="M65.0334 0C37.8914 0 29.9534 0.028 28.4104 0.156C22.8404 0.619 19.3744 1.496 15.5984 3.376C12.6884 4.821 10.3934 6.496 8.12844 8.844C4.00344 13.126 1.50344 18.394 0.598444 24.656C0.158444 27.696 0.0304444 28.316 0.00444444 43.844C-0.00555556 49.02 0.00444444 55.832 0.00444444 64.969C0.00444444 92.089 0.0344445 100.019 0.164444 101.559C0.614444 106.979 1.46444 110.389 3.26444 114.119C6.70444 121.259 13.2744 126.619 21.0144 128.619C23.6944 129.309 26.6544 129.689 30.4544 129.869C32.0644 129.939 48.4744 129.989 64.8944 129.989C81.3144 129.989 97.7344 129.969 99.3044 129.889C103.704 129.682 106.259 129.339 109.084 128.609C116.874 126.599 123.324 121.319 126.834 114.079C128.599 110.439 129.494 106.899 129.899 101.762C129.987 100.642 130.024 82.785 130.024 64.952C130.024 47.116 129.984 29.292 129.896 28.172C129.486 22.952 128.591 19.442 126.769 15.732C125.274 12.695 123.614 10.427 121.204 8.108C116.903 4 111.643 1.5 105.375 0.596C102.338 0.157 101.733 0.027 86.1934 0H65.0334Z" fill="#D9D9D9" fill-opacity="0.35"/>
</g>
<defs>
<filter id="filter0_b_488_150" x="-4" y="-4" width="138.024" height="137.989" filterUnits="userSpaceOnUse" color-interpolation-filters="sRGB">
<feFlood flood-opacity="0" result="BackgroundImageFix"/>
<feGaussianBlur in="BackgroundImageFix" stdDeviation="2"/>
<feComposite in2="SourceAlpha" operator="in" result="effect1_backgroundBlur_488_150"/>
<feBlend mode="normal" in="SourceGraphic" in2="effect1_backgroundBlur_488_150" result="shape"/>
</filter>
</defs>
</svg>
