<svg width="82" height="55" viewBox="0 0 82 55" fill="none" xmlns="http://www.w3.org/2000/svg">
<path d="M76.6138 21.8832C75.4066 21.8832 74.6637 21.5796 73.6189 20.9724C57.0889 11.0467 27.5345 8.66454 8.4043 14.0361C7.56852 14.2696 6.52378 14.6433 5.4094 14.6433C2.34485 14.6433 0 12.2378 0 9.13164C0 5.95542 1.95017 4.15712 4.03964 3.5499C12.2118 1.14438 21.359 0 31.3188 0C48.2667 0 66.0272 3.54989 79.0051 11.1635C80.816 12.2144 82 13.6624 82 16.4416C82 19.6178 79.4462 21.8832 76.6138 21.8832ZM69.4168 39.6794C68.2095 39.6794 67.3969 39.1423 66.5612 38.6985C52.051 30.0573 30.4134 26.5775 11.167 31.8323C10.0527 32.1359 9.44904 32.4395 8.4043 32.4395C5.92016 32.4395 3.90034 30.4076 3.90034 27.9087C3.90034 25.4098 5.10759 23.7516 7.49887 23.0743C13.953 21.2527 20.5464 19.8981 30.2044 19.8981C45.2718 19.8981 59.8284 23.6582 71.2973 30.5244C73.1778 31.6454 73.9207 33.0934 73.9207 35.1253C73.8975 37.6476 71.9473 39.6794 69.4168 39.6794ZM63.1716 55C62.1965 55 61.5929 54.6964 60.6874 54.1592C46.2005 45.3779 29.3454 45.0042 12.6993 48.4374C11.7939 48.6709 10.6099 49.0446 9.93658 49.0446C7.6846 49.0446 6.2684 47.2463 6.2684 45.3546C6.2684 42.949 7.6846 41.8047 9.42582 41.431C28.44 37.2038 47.872 37.5775 64.4485 47.5499C65.8647 48.4607 66.7005 49.2781 66.7005 51.4034C66.7005 53.5287 65.0521 55 63.1716 55Z" fill="white"/>
</svg>
