<svg width="376" height="346" viewBox="0 0 376 346" fill="none" xmlns="http://www.w3.org/2000/svg">
<g filter="url(#filter0_f_313_776)">
<circle cx="188" cy="158" r="75" fill="#FFD53C" fill-opacity="0.9"/>
</g>
<g clip-path="url(#clip0_313_776)">
<rect x="137" y="103" width="102" height="101.94" rx="50.97" fill="#2AB0AF"/>
<rect x="137" y="103" width="102" height="101.94" rx="50.97" fill="url(#paint0_radial_313_776)"/>
<g opacity="0.5">
<path d="M238.687 148.917C237.737 148.838 236.622 148.838 235.379 149.005C231.572 149.504 225.74 151.667 219.574 159.153C218.596 160.347 217.686 161.472 216.795 162.568C206.921 174.791 202.409 180.379 172.953 183.051C163.647 183.892 157.207 187.004 152.745 190.782C152.53 190.576 152.324 190.381 152.118 190.165C156.689 186.27 163.314 183.051 172.875 182.19C201.959 179.547 206.109 174.419 216.12 162.02C217.001 160.924 217.911 159.799 218.899 158.605C225.27 150.864 231.347 148.643 235.32 148.134C236.534 147.977 237.63 147.968 238.579 148.036C238.628 148.33 238.667 148.623 238.687 148.917Z" fill="#FFED9F"/>
<path d="M238.423 161.198C238.384 161.482 238.344 161.766 238.295 162.04C233.764 161.971 229.723 163.821 226.229 167.569C224.194 169.751 222.452 171.797 220.915 173.597C213.351 182.463 208.78 187.816 186.321 191.437C177.621 192.837 171.221 195.89 167.258 200.509C166.984 200.392 166.71 200.264 166.436 200.137C170.526 195.254 177.161 192.034 186.184 190.586C208.33 187.014 212.568 182.052 220.26 173.039C221.806 171.229 223.558 169.174 225.603 166.982C229.811 162.451 234.401 161.12 238.423 161.198Z" fill="#FFED9F"/>
<path d="M235.125 173.323C234.997 173.627 234.87 173.94 234.733 174.243C231.083 174.86 227.951 176.778 225.378 179.997C218.371 188.756 213.722 193.277 201.421 196.937C193.103 199.403 189.59 202.496 188.132 204.913H187.975C187.691 204.913 187.417 204.913 187.133 204.903C189.042 201.263 193.759 198.297 201.167 196.096C213.233 192.514 217.803 188.061 224.693 179.449C227.922 175.427 231.69 173.803 235.125 173.323Z" fill="#FFED9F"/>
<path d="M185.675 160.034C182.475 165.602 174.46 167.716 162.599 170.31C152.334 172.551 147.118 177.082 144.524 180.575C144.358 180.301 144.192 180.027 144.025 179.753C144.26 179.44 144.524 179.127 144.808 178.794C147.49 175.702 152.725 171.582 162.413 169.458C174.049 166.914 181.898 164.849 184.922 159.603C186.849 156.237 186.771 151.638 184.677 145.12C182.906 139.62 180.244 134.101 177.68 128.767C173.834 120.772 170.115 113.061 169.88 106.318C170.174 106.21 170.458 106.103 170.751 105.995C170.878 112.63 174.597 120.361 178.463 128.386C181.046 133.749 183.718 139.287 185.509 144.856C187.681 151.618 187.74 156.443 185.675 160.034Z" fill="#FFED9F"/>
<path d="M174.255 151.5C172.229 155.317 165.937 156.883 155.035 158.439C147.108 159.574 141.716 162.216 138.183 164.8C138.115 164.477 138.046 164.144 137.978 163.821C141.608 161.257 147.02 158.703 154.908 157.578C165.281 156.1 171.642 154.563 173.482 151.089C174.676 148.829 174.118 145.57 171.661 140.54C171.123 139.444 170.595 138.377 170.086 137.34C165.457 128.023 161.68 120.42 162.942 109.567C163.255 109.391 163.559 109.214 163.882 109.048C162.414 119.92 166.044 127.241 170.869 136.948C171.387 137.986 171.916 139.052 172.454 140.148C175.038 145.472 175.596 148.966 174.255 151.5Z" fill="#FFED9F"/>
<path d="M151.14 144.151C149.995 144.591 148.703 145.09 147.323 145.668C142.088 147.889 138.868 150.287 137.058 151.98C137.067 151.569 137.097 151.158 137.126 150.747C139.074 149.064 142.205 146.901 146.99 144.875C148.38 144.288 149.682 143.789 150.836 143.349C157.687 140.726 160.525 139.64 158.607 128.845C157.334 121.682 157.608 116.192 158.137 112.659C158.47 112.415 158.802 112.18 159.145 111.945C158.558 115.35 158.108 121.095 159.458 128.699C161.503 140.188 158.039 141.519 151.14 144.151Z" fill="#FFED9F"/>
<path d="M150.67 130.871C148.488 134.238 144.016 135.422 140.346 135.803C140.463 135.49 140.591 135.177 140.718 134.864C144.114 134.453 148.048 133.318 149.946 130.392C151.541 127.935 151.483 124.53 149.76 120.243C149.976 119.999 150.181 119.764 150.406 119.529C152.393 124.285 152.481 128.092 150.67 130.871Z" fill="#FFED9F"/>
<path d="M237.796 143.202C230.045 141.655 226.787 136.674 223.616 131.84C222.941 130.803 222.236 129.736 221.512 128.738C220.964 127.984 220.445 127.221 219.956 126.487C216.325 121.124 212.89 116.055 195.451 113.276C187.055 111.935 181.222 109.244 178.13 105.261C177.827 104.869 177.572 104.488 177.347 104.116C177.65 104.047 177.954 103.989 178.257 103.93C178.433 104.214 178.639 104.497 178.864 104.791C180.909 107.384 185.47 110.809 195.588 112.424C213.399 115.262 216.932 120.478 220.67 126.007C221.16 126.732 221.669 127.485 222.217 128.229C222.96 129.247 223.665 130.323 224.35 131.37C227.354 135.96 230.447 140.677 237.6 142.262C237.659 142.565 237.737 142.879 237.796 143.202Z" fill="#FFED9F"/>
<path d="M234.175 132.417C228.803 130.949 225.877 127.221 222.804 123.306C219.339 118.903 215.425 113.912 207.244 111.23C198.534 108.373 194.336 105.417 192.31 103.186C192.76 103.225 193.22 103.264 193.67 103.323C195.794 105.329 199.836 107.893 207.508 110.408C215.934 113.168 219.946 118.276 223.479 122.778C226.425 126.526 229.047 129.863 233.666 131.37C233.843 131.713 234.009 132.065 234.175 132.417Z" fill="#FFED9F"/>
<path d="M220.837 141.137C219.183 132.848 207.704 120.919 197.233 116.573C191.86 114.352 187.28 114.342 183.982 116.534C181.956 117.885 183.415 122.054 185.636 128.356C186.644 131.214 187.779 134.443 188.728 137.858C189.482 140.569 189.961 143.583 190.431 146.49C191.801 155.004 193.093 163.048 200.677 163.938C201.137 163.997 201.607 164.017 202.077 164.017C206.617 164.017 211.657 161.551 215.533 157.343C219.927 152.577 221.913 146.519 220.837 141.137ZM214.887 156.755C210.786 161.198 205.384 163.616 200.775 163.077C193.837 162.265 192.594 154.534 191.283 146.353C190.813 143.417 190.324 140.383 189.56 137.623C188.601 134.179 187.456 130.93 186.448 128.062C184.589 122.788 182.984 118.237 184.452 117.259C188.298 114.695 193.338 115.908 196.89 117.376C206.96 121.545 218.4 133.406 219.976 141.303C221.003 146.411 219.095 152.195 214.887 156.755Z" fill="#FFED9F"/>
<path d="M211.951 132.74C206.794 126.683 198.769 120.811 192.036 120.811C191.713 120.811 191.41 120.821 191.097 120.85C190.47 120.899 190.001 121.212 189.736 121.731C188.151 124.843 194.326 135.167 194.385 135.265C195.941 137.858 196.234 141.538 196.508 145.1C196.919 150.385 197.311 155.376 201.95 155.796C202.419 155.836 202.889 155.865 203.349 155.865C210.062 155.865 215.905 151.471 217.529 144.983C218.204 142.272 216.071 137.575 211.951 132.74ZM216.687 144.768C215.053 151.275 208.888 155.552 202.018 154.926C198.104 154.573 197.761 150.15 197.36 145.032C197.076 141.372 196.782 137.584 195.109 134.815C192.614 130.675 189.531 124.001 190.49 122.122C190.627 121.868 190.832 121.731 191.155 121.711C197.771 121.154 206.03 127.123 211.285 133.298C215.171 137.859 217.294 142.36 216.687 144.768Z" fill="#FFED9F"/>
<path d="M210.052 142.615C209.632 138.133 204.641 131.527 200.726 131.527C200.354 131.527 200.139 131.713 200.022 131.869C199.552 132.496 199.904 133.739 200.619 136.058C201.088 137.575 201.617 139.297 201.734 140.687C201.783 141.245 201.783 141.802 201.793 142.341C201.812 143.887 201.842 145.345 202.86 146.177C203.398 146.617 204.161 146.832 205.189 146.832C205.835 146.832 206.588 146.744 207.449 146.588C209.338 146.206 210.258 144.807 210.052 142.615ZM207.303 145.717C205.336 146.089 204.063 146.02 203.417 145.492C202.713 144.914 202.693 143.711 202.674 142.311C202.664 141.763 202.654 141.196 202.605 140.609C202.488 139.121 201.94 137.35 201.45 135.784C201.079 134.57 200.511 132.75 200.707 132.388H200.716C204.122 132.388 208.81 138.72 209.181 142.693C209.348 144.425 208.712 145.443 207.303 145.717Z" fill="#FFED9F"/>
</g>
<path opacity="0.65" d="M238.129 163.332C237.434 166.992 236.309 170.652 234.743 174.253C220.504 207.027 177.396 215.433 152.138 190.175C136.706 174.889 133.868 154.241 140.092 136.87C145.259 148.878 153.587 166.884 183.063 175.966C204.015 182.415 227.932 176.827 238.129 163.332Z" fill="url(#paint1_linear_313_776)"/>
<path opacity="0.65" d="M239 154.152C238.99 157.186 238.706 160.259 238.119 163.332C237.424 166.992 236.299 170.652 234.733 174.253C220.494 207.027 177.386 215.433 152.128 190.175C149.124 187.2 146.599 184.02 144.525 180.702C215.826 213.133 238.364 151.941 238.364 151.941L239 154.152Z" fill="url(#paint2_linear_313_776)"/>
</g>
<defs>
<filter id="filter0_f_313_776" x="0.800003" y="-29.2" width="374.4" height="374.4" filterUnits="userSpaceOnUse" color-interpolation-filters="sRGB">
<feFlood flood-opacity="0" result="BackgroundImageFix"/>
<feBlend mode="normal" in="SourceGraphic" in2="BackgroundImageFix" result="shape"/>
<feGaussianBlur stdDeviation="56.1" result="effect1_foregroundBlur_313_776"/>
</filter>
<radialGradient id="paint0_radial_313_776" cx="0" cy="0" r="1" gradientUnits="userSpaceOnUse" gradientTransform="translate(188.873 134.424) scale(50.9864 50.9886)">
<stop stop-color="#FFD83D"/>
<stop offset="1" stop-color="#FC7B24"/>
</radialGradient>
<linearGradient id="paint1_linear_313_776" x1="179.945" y1="205.732" x2="187.762" y2="155.644" gradientUnits="userSpaceOnUse">
<stop stop-color="#E04127"/>
<stop offset="1" stop-color="#E04127" stop-opacity="0.1"/>
</linearGradient>
<linearGradient id="paint2_linear_313_776" x1="201.854" y1="208.484" x2="189.261" y2="157.24" gradientUnits="userSpaceOnUse">
<stop stop-color="#C22C27"/>
<stop offset="1" stop-color="#D33127" stop-opacity="0.2"/>
</linearGradient>
<clipPath id="clip0_313_776">
<rect x="137" y="103" width="102" height="101.94" rx="50.97" fill="white"/>
</clipPath>
</defs>
</svg>
